General

Complete name                    : Transit[2012][ENG][BRRip]XviD-{RedDragon}
Format                           : AVI
Format/Info                      : Audio Video Interleave
File size                        : 755 MiB
Duration                         : 1h 28mn
Overall bit rate                 : 1 117 Kbps
IMDB                             : http://www.imdb.com/title/tt1059836/
IMDB Rating                      : 7/10

Video

ID                               : 0
Format                           : MPEG-4 Visual
Format profile                   : Simple@L3
Format settings, BVOP            : No
Format settings, QPel            : No
Format settings, GMC             : No warppoints
Format settings, Matrix          : Default (H.263)
Codec ID                         : XVID
Codec ID/Hint                    : XviD
Duration                         : 1h 28mn
Bit rate                         : 976 Kbps
Width                            : 640 pixels
Height                           : 272 pixels
Display aspect ratio             : 2.35:1
Frame rate                       : 23.976 fps
Color space                      : YUV
Chroma subsampling               : 4:2:0
Bit depth                        : 8 bits
Scan type                        : Progressive
Bits/(Pixel*Frame)               : 0.234
Stream size                      : 616 MiB (87%)
Writing library                  : XviD 1.1.2 (UTC 2006-11-01)

Audio

ID                               : 1
Format                           : MPEG Audio
Format version                   : Version 1
Format profile                   : Layer 3
Mode                             : Joint stereo
Mode extension                   : MS Stereo
Codec ID                         : 55
Codec ID/Hint                    : MP3
Duration                         : 1h 28mn
Bit rate mode                    : Constant
Bit rate                         : 128 Kbps
Channel(s)                       : 2 channels
Sampling rate                    : 48.0 KHz
Stream size                      : 80.7 MiB (11%)
Alignment                        : Split accross interleaves
Interleave, duration             : 24 ms (0.58 video frame)
Writing library                  : LAME3.98
 

FORUMS. 
 
 
Please Join my Forums :
 
http://discussionforums.freeforhosting.com/    --&gt; Discussion Forum.